:SAMPLES-PER-SECOND 30
:FULLY-SPECIFIED
:DEGREES
305
root  49.4058 29.6364 5.22638 -168.129 77.8111 172.518
RightUpLeg  -72.9011 -10.861 -1.38728
RightLeg  76.4939 0.884754 2.96609
RightFoot  -18.0526 -0.240479 -2.04437
RightToes  -2.21189e-009 0 -3.6325e-017
Spine  65.8555 -9.25407 9.28316
Spine1  -9.55016 -4.15824 -6.69426
HEad  -46.3735 -20.5678 -2.36002
LeftShoulder1  -0.673977 -10.4717 15.1844
LeftArm  -68.4749 -62.1177 19.661
LeftForeArm  -44.3614 -4.56719 5.29258
LeftHand  0.0348467 10.8478 1.97177
RightShoulder  -1.12448 7.04612 -21.914
RightArm  -66.6034 59.9433 -18.8884
RightForeArm  -48.2968 -3.40445 -5.63475
RightHand  0.284333 2.91854 3.7364
LeftUpLeg  -73.125 1.34648 2.14194
LeftLeg  74.873 -1.24393 -4.15678
LeftFoot  -16.5987 0.15856 1.08813
LeftToes  -4.03379e-008 1.61488e-010 -5.81581e-011
306
root  49.3538 29.8296 5.11787 -166.17 78.5264 174.176
RightUpLeg  -72.8629 -10.2745 -1.20883
RightLeg  75.4045 0.962241 3.04824
RightFoot  -16.9758 -0.244124 -2.61525
RightToes  -2.21189e-009 0 -3.6325e-017
Spine  65.4915 -8.85553 9.14027
Spine1  -8.76025 -3.77661 -6.87443
HEad  -46.7538 -21.5726 -2.26913
LeftShoulder1  -0.733801 -10.3494 15.7255
LeftArm  -69.0717 -61.9167 20.4294
LeftForeArm  -46.2881 -4.82092 5.31777
LeftHand  0.107645 10.0616 3.77148
RightShoulder  -1.11059 6.71376 -22.1519
RightArm  -66.9664 59.5665 -19.9808
RightForeArm  -48.4576 -3.40913 -5.57074
RightHand  0.233297 1.96491 3.52431
LeftUpLeg  -72.9127 1.84257 2.2269
LeftLeg  74.1015 -1.22048 -3.81675
LeftFoot  -16.4712 0.141493 0.951298
LeftToes  -4.03379e-008 1.61488e-010 -5.81581e-011
307
root  49.2655 30.0585 4.99137 -164.442 79.3626 175.85
RightUpLeg  -72.3466 -9.62736 -1.23015
RightLeg  73.8675 1.11143 3.31003
RightFoot  -16.4447 -0.194599 -1.85959
RightToes  -2.21189e-009 0 -3.6325e-017
Spine  65.8653 -8.30506 8.87302
Spine1  -9.29869 -3.30471 -6.83302
HEad  -46.4697 -21.075 -3.75575
LeftShoulder1  -0.722248 -10.339 15.6356
LeftArm  -70.0503 -62.2799 19.7996
LeftForeArm  -43.8882 -5.6638 5.84573
LeftHand  0.1804 11.4232 4.50706
RightShoulder  -1.17 6.85224 -22.6527
RightArm  -65.291 59.0215 -18.6547
RightForeArm  -47.6302 -3.46466 -5.45573
RightHand  0.308722 2.253 4.50555
LeftUpLeg  -72.4 2.43176 2.18948
LeftLeg  73.1176 -1.22462 -3.5648
LeftFoot  -16.1071 0.137751 0.986281
LeftToes  -4.03379e-008 1.61488e-010 -5.81581e-011
308
root  49.1769 30.2673 4.83875 -162.586 79.8619 176.906
RightUpLeg  -72.6467 -9.23209 -1.38858
RightLeg  72.3075 1.20809 3.31579
RightFoot  -15.619 -0.142288 -0.98774
RightToes  -2.21189e-009 0 -3.6325e-017
Spine  64.2523 -7.95749 8.93798
Spine1  -7.41439 -2.91205 -6.93903
HEad  -49.0508 -18.585 -4.66034
LeftShoulder1  -0.79309 -10.2182 16.2785
LeftArm  -71.035 -61.7483 21.3226
LeftForeArm  -42.9024 -5.74489 5.99678
LeftHand  0.149997 11.4335 3.89756
RightShoulder  -1.22517 6.40942 -23.8419
RightArm  -64.6313 58.5808 -19.1428
RightForeArm  -48.6255 -3.47819 -5.14663
RightHand  0.368809 2.36753 5.32286
LeftUpLeg  -72.7062 2.62129 2.01427
LeftLeg  72.0373 -1.20711 -3.24492
LeftFoot  -15.5103 0.131294 1.05022
LeftToes  -4.03379e-008 1.61488e-010 -5.81581e-011
309
root  49.0526 30.5712 4.71186 -159.825 80.6754 179.664
RightUpLeg  -71.877 -8.42587 -1.29203
RightLeg  70.4202 1.32956 3.32431
RightFoot  -14.5145 -0.124557 -0.985618
RightToes  -2.21189e-009 0 -3.6325e-017
Spine  64.1313 -7.66203 8.80204
Spine1  -7.05317 -2.52071 -7.42236
HEad  -51.5932 -15.4352 -5.70426
LeftShoulder1  -0.818961 -10.1156 16.5442
LeftArm  -71.3908 -61.854 21.1672
LeftForeArm  -40.2634 -5.85949 6.22419
LeftHand  0.130988 10.4327 4.0946
RightShoulder  -1.22701 6.70992 -23.4644
RightArm  -64.8248 58.6413 -19.0346
RightForeArm  -49.0322 -3.45627 -5.17185
RightHand  0.302482 1.95109 4.61978
LeftUpLeg  -72.0122 3.2573 2.02502
LeftLeg  70.6918 -1.20037 -2.94854
LeftFoot  -14.8365 0.130406 1.36644
LeftToes  -4.03379e-008 1.61488e-010 -5.81581e-011
310
root  48.892 30.9412 4.55735 -156.679 81.5844 -177.34
RightUpLeg  -71.0181 -7.52474 -1.28322
RightLeg  68.029 1.53344 3.46554
RightFoot  -13.2021 -0.109654 -1.20055
RightToes  -2.21189e-009 0 -3.6325e-017
Spine  64.4102 -7.41039 8.58376
Spine1  -7.89677 -2.23961 -7.94785
HEad  -53.0965 -12.6336 -6.83534
LeftShoulder1  -0.739455 -10.1115 15.8793
LeftArm  -70.9254 -62.3752 20.1783
LeftForeArm  -38.7936 -6.57788 5.9813
LeftHand  0.187719 11.2996 4.70365
RightShoulder  -1.17301 7.21333 -22.2314
RightArm  -65.6919 59.3961 -19.1378
RightForeArm  -47.348 -3.49905 -5.32941
RightHand  0.312119 2.45033 4.45656
LeftUpLeg  -71.2352 3.95266 1.88977
LeftLeg  68.8712 -1.20624 -2.66047
LeftFoot  -13.9833 0.125526 1.78476
LeftToes  -4.03379e-008 1.61488e-010 -5.81581e-011
311
root  48.7182 31.3413 4.40852 -153.178 82.5546 -173.97
RightUpLeg  -70.0549 -6.53557 -1.45043
RightLeg  65.3016 1.72954 3.48358
RightFoot  -11.8507 -0.0833254 -0.671281
RightToes  -2.21189e-009 0 -3.6325e-017
Spine  63.7758 -6.81318 8.3852
Spine1  -6.66688 -1.51995 -8.35469
HEad  -54.8352 -12.1936 -7.54731
LeftShoulder1  -0.816021 -10.3013 16.4288
LeftArm  -70.8071 -62.316 20.4158
LeftForeArm  -39.6774 -6.38489 5.90839
LeftHand  0.141756 9.70353 4.98732
RightShoulder  -1.13033 7.41753 -21.5629
RightArm  -65.5759 59.2839 -20.6513
RightForeArm  -48.9536 -3.52357 -4.81594
RightHand  0.296663 3.44503 3.64962
LeftUpLeg  -70.2259 4.77382 1.63814
LeftLeg  66.6911 -1.21802 -2.37364
LeftFoot  -13.3209 0.115231 2.06228
LeftToes  -4.03379e-008 1.61488e-010 -5.81581e-011
312
root  48.5181 31.7592 4.26466 -148.081 83.3696 -169.059
RightUpLeg  -69.0652 -5.60397 -1.46614
RightLeg  62.3554 1.94486 3.47903
RightFoot  -10.2477 -0.0647282 -0.424482
RightToes  -2.21189e-009 0 -3.6325e-017
Spine  63.671 -6.46529 8.43349
Spine1  -7.2851 -0.951688 -9.24506
HEad  -54.5053 -12.1155 -7.76681
LeftShoulder1  -0.836869 -10.7572 16.3787
LeftArm  -70.4764 -63.1911 19.203
LeftForeArm  -38.9404 -6.40797 5.88811
LeftHand  0.15405 10.2325 4.78625
RightShoulder  -1.07863 7.92382 -20.516
RightArm  -65.0901 59.5901 -19.4785
RightForeArm  -47.3053 -3.57501 -4.91662
RightHand  0.302996 2.7476 4.10373
LeftUpLeg  -69.2434 5.79645 1.35149
LeftLeg  64.2552 -1.38348 -2.47636
LeftFoot  -12.4807 0.103593 2.88896
LeftToes  -4.03379e-008 1.61488e-010 -5.81581e-011
313
root  48.2914 32.2316 4.11635 -138.508 84.1671 -159.597
RightUpLeg  -67.698 -4.64012 -1.12017
RightLeg  58.8376 2.28915 3.60631
RightFoot  -8.76581 -0.0503999 -0.409919
RightToes  -2.21189e-009 0 -3.6325e-017
Spine  63.1711 -5.80008 8.40975
Spine1  -7.11542 -0.208735 -9.60714
HEad  -53.7107 -12.6867 -8.74604
LeftShoulder1  -0.886577 -11.1773 16.5701
LeftArm  -69.9869 -63.6359 17.8348
LeftForeArm  -37.6472 -6.70091 5.97287
LeftHand  0.108238 9.55139 4.27352
RightShoulder  -1.03158 8.33094 -19.6966
RightArm  -64.8729 60.0749 -19.3585
RightForeArm  -47.8986 -3.59444 -4.66891
RightHand  0.230519 3.38846 2.84183
LeftUpLeg  -68.0815 7.05118 1.30542
LeftLeg  61.5309 -1.61936 -2.62733
LeftFoot  -11.5243 0.0751066 3.4714
LeftToes  -4.03379e-008 1.61488e-010 -5.81581e-011
314
root  48.0527 32.7261 4.0337 -130.208 85.0617 -150.736
RightUpLeg  -65.6279 -3.40316 -1.27703
RightLeg  55.2862 2.6009 3.62087
RightFoot  -7.16766 -0.0489978 -0.00941016
RightToes  -2.21189e-009 0 -3.6325e-017
Spine  63.0044 -5.17589 7.82551
Spine1  -6.70802 0.46195 -10.49
HEad  -53.4555 -13.1522 -9.05769
LeftShoulder1  -0.930335 -11.7163 16.657
LeftArm  -69.2937 -63.9998 17.3808
LeftForeArm  -35.3163 -6.71064 5.64678
LeftHand  0.101423 9.94962 3.77681
RightShoulder  -0.894692 8.05282 -18.5531
RightArm  -65.248 61.3823 -18.2622
RightForeArm  -48.4868 -3.6229 -4.66811
RightHand  0.0531867 3.8415 0.352401
LeftUpLeg  -66.1307 8.53579 0.988
LeftLeg  58.6897 -2.1403 -3.25872
LeftFoot  -10.4335 0.0333541 3.71626
LeftToes  -4.03379e-008 1.61488e-010 -5.81581e-011
315
root  47.7808 33.2047 3.94617 -131.147 84.9713 -151.13
RightUpLeg  -63.5577 -3.42789 -1.4906
RightLeg  51.9689 2.80982 3.46944
RightFoot  -5.63453 -0.0616973 0.485779
RightToes  -2.21189e-009 0 -3.6325e-017
Spine  62.3754 -4.73359 7.38671
Spine1  -6.30959 0.507088 -9.51813
HEad  -52.9948 -13.5815 -10.0544
LeftShoulder1  -0.739981 -11.8656 15.1769
LeftArm  -69.1361 -65.0631 16.7304
LeftForeArm  -32.2172 -7.08163 5.37008
LeftHand  0.080471 9.73732 3.39664
RightShoulder  -0.678641 6.81632 -17.294
RightArm  -66.2208 63.8458 -16.2349
RightForeArm  -46.2468 -3.25673 -4.91046
RightHand  -0.125609 3.99319 -1.74676
LeftUpLeg  -64.2441 8.71063 0.587923
LeftLeg  55.5759 -2.30955 -3.11702
LeftFoot  -8.80591 -0.0323578 3.84879
LeftToes  -4.03379e-008 1.61488e-010 -5.81581e-011
316
root  47.5689 33.6025 3.86906 -129.724 84.7542 -148.538
RightUpLeg  -60.9761 -3.68791 -1.15943
RightLeg  49.1751 3.20248 3.61889
RightFoot  -4.53657 -0.0643079 0.56029
RightToes  -2.21189e-009 0 -3.6325e-017
Spine  61.7275 -4.51567 7.41463
Spine1  -5.86498 0.476657 -8.93876
HEad  -52.1315 -13.6241 -10.6834
LeftShoulder1  -0.433433 -12.0488 12.8496
LeftArm  -68.3262 -66.5013 16.2813
LeftForeArm  -30.311 -7.39352 4.48816
LeftHand  0.0507076 9.26628 2.91203
RightShoulder  -0.542491 7.48376 -15.3268
RightArm  -63.1523 64.7296 -13.0368
RightForeArm  -45.5805 -0.654718 -4.01975
RightHand  -0.421599 6.54332 -4.44474
LeftUpLeg  -61.9144 9.10319 0.674469
LeftLeg  53.1027 -2.77886 -3.48878
LeftFoot  -7.81636 -0.0717055 3.88259
LeftToes  -4.03379e-008 1.61488e-010 -5.81581e-011
317
root  47.3224 34.0659 3.8995 -134.153 84.3144 -151.547
RightUpLeg  -57.8866 -4.1444 -1.1087
RightLeg  46.0047 3.50946 3.5652
RightFoot  -3.60008 -0.0951313 1.04867
RightToes  -2.21189e-009 0 -3.6325e-017
Spine  60.5297 -4.43366 7.08733
Spine1  -4.27865 0.506984 -8.7831
HEad  -51.2871 -13.8141 -11.5607
LeftShoulder1  -0.187722 -11.9366 11.0496
LeftArm  -67.06 -68.0538 14.9109
LeftForeArm  -29.0272 -7.81456 3.68983
LeftHand  0.0477796 8.24103 3.53396
RightShoulder  -0.273616 6.87411 -12.7671
RightArm  -59.4786 66.2295 -8.04061
RightForeArm  -43.2852 3.62021 -3.06619
RightHand  -0.703734 7.96347 -6.49305
LeftUpLeg  -59.1243 9.45656 0.485248
LeftLeg  50.0284 -3.58716 -4.13645
LeftFoot  -6.35548 -0.113848 3.48595
LeftToes  -4.03379e-008 1.61488e-010 -5.81581e-011
318
root  47.1295 34.5115 4.02153 -140.385 83.6064 -155.905
RightUpLeg  -54.304 -4.87636 -1.03537
RightLeg  43.0591 3.86076 3.56348
RightFoot  -2.89924 -0.187388 2.24309
RightToes  -2.21189e-009 0 -3.6325e-017
Spine  59.7735 -4.06052 6.2544
Spine1  -3.64288 0.388322 -7.7568
HEad  -51.3212 -12.2713 -12.2997
LeftShoulder1  0.254559 -11.6095 7.71864
LeftArm  -63.4886 -69.9366 10.025
LeftForeArm  -24.3707 -9.20449 2.84269
LeftHand  0.0297902 7.69433 3.363
RightShoulder  -0.00105084 7.39442 -9.6836
RightArm  -52.2246 66.6423 0.561121
RightForeArm  -40.1538 8.51352 -1.99752
RightHand  -0.928948 8.56658 -8.05999
LeftUpLeg  -55.7854 9.50851 0.596784
LeftLeg  46.9403 -4.46475 -4.6745
LeftFoot  -4.81821 -0.164356 3.39436
LeftToes  -4.03379e-008 1.61488e-010 -5.81581e-011
319
root  46.9662 34.9376 4.20171 -145.247 82.8775 -158.564
RightUpLeg  -50.5455 -5.62062 -0.908825
RightLeg  40.4769 4.77106 4.06433
RightFoot  -1.71461 -0.314935 3.63508
RightToes  -2.21189e-009 0 -3.6325e-017
Spine  58.6495 -3.96447 5.9978
Spine1  -2.43163 0.46984 -7.7425
HEad  -50.8305 -10.6983 -12.652
LeftShoulder1  0.65442 -11.1264 4.54123
LeftArm  -57.3202 -71.5373 2.85021
LeftForeArm  -19.1903 -10.6582 1.58178
LeftHand  0.00424589 6.56017 3.53807
RightShoulder  0.268801 7.2363 -6.816
RightArm  -43.1875 66.324 11.3615
RightForeArm  -37.2186 12.2116 -0.822941
RightHand  -1.16462 9.61907 -9.37357
LeftUpLeg  -52.1139 9.97588 0.791213
LeftLeg  43.9927 -5.66759 -5.44079
LeftFoot  -3.43631 -0.207168 3.29168
LeftToes  -4.03379e-008 1.61488e-010 -5.81581e-011
